<?xml version="1.0" standalone="no"?>
<!DOCTYPE svg PUBLIC "-//W3C//DTD SVG 20010904//EN"
 "http://www.w3.org/TR/2001/REC-SVG-20010904/DTD/svg10.dtd">
<svg version="1.0" xmlns="http://www.w3.org/2000/svg"
 width="128.000000pt" height="39.000000pt" viewBox="0 0 128.000000 39.000000"
 preserveAspectRatio="xMidYMid meet">
<metadata>
Created by potrace 1.16, written by Peter Selinger 2001-2019
</metadata>
<g transform="translate(0.000000,39.000000) scale(0.100000,-0.100000)"
fill="#000000" stroke="none">
<path d="M432 370 c-17 -27 -15 -51 6 -78 l18 -24 18 27 c23 36 30 26 10 -14
-9 -17 -13 -38 -10 -46 4 -11 -3 -15 -27 -15 -25 0 -35 -6 -45 -28 -10 -22
-10 -29 1 -37 23 -16 8 -35 -28 -35 l-33 0 15 30 c18 38 3 63 -36 58 -20 -2
-32 -15 -53 -58 -33 -66 -32 -93 2 -100 14 -3 25 -11 26 -17 2 -31 5 -34 27
-31 12 2 26 13 32 26 10 22 12 22 207 22 108 0 204 3 213 7 22 8 65 99 65 136
0 15 5 27 11 27 5 0 8 -4 5 -9 -11 -17 6 -41 30 -41 17 0 25 7 30 24 4 16 15
26 33 29 21 4 34 19 54 57 15 29 27 65 27 81 l0 29 -93 0 -93 0 -12 -33 c-7
-18 -12 -39 -12 -45 0 -15 66 -16 75 -2 3 6 15 10 27 10 17 0 18 -2 8 -15 -10
-12 -28 -15 -69 -13 l-56 3 0 45 0 45 -80 3 -80 3 -20 -43 c-12 -24 -29 -44
-38 -46 -15 -3 -15 0 -2 32 8 19 15 40 15 46 0 6 -31 10 -78 10 -66 0 -79 -3
-90 -20z"/>
</g>
</svg>
