<svg width="14" height="13" viewBox="0 0 14 13" fill="none" xmlns="http://www.w3.org/2000/svg">
<path d="M5.80961 8.61917C7.34905 8.58419 8.18875 6.13508 8.18875 6.13508C8.78963 5.89473 9.08108 4.77527 8.65 4.28266C8.51956 4.13361 8.31119 3.98504 8.14957 3.87203L8.15516 3.8791C8.18036 3.76154 8.18875 3.63559 8.18875 3.50963C8.18875 2.19971 7.12234 1.1333 5.81242 1.1333C4.4941 1.1333 3.42769 2.19971 3.42769 3.50963C3.42769 3.63559 3.43609 3.76154 3.46128 3.8791C3.29966 3.99211 3.09968 4.13362 2.96924 4.28266C2.53815 4.77527 2.8296 5.89473 3.43049 6.13508C3.43048 6.13508 4.27018 8.58419 5.80961 8.61917Z" stroke="#6A6A6A" stroke-width="0.7" stroke-miterlimit="10" stroke-linecap="round" stroke-linejoin="round"/>
<path d="M1.37051 9.96692L1.58884 9.84097L3.64609 8.62341C4.36823 9.38754 5.09876 9.74861 5.84609 9.74861C6.61021 9.74861 7.39112 9.36235 8.18884 8.62341L10.5568 9.83257L10.6827 9.89135C11.0606 10.0929 11.3209 10.4875 11.3209 10.941C11.3209 11.5959 10.7835 12.1333 10.1285 12.1333H2.05067C1.39571 12.1333 0.866699 11.5959 0.866699 10.941C0.866699 10.5379 1.06823 10.1852 1.37051 9.96692ZM1.37051 9.96692L1.58884 9.84097" stroke="#6A6A6A" stroke-width="0.7" stroke-miterlimit="10" stroke-linecap="round" stroke-linejoin="round"/>
<path d="M10.3315 6.25724L11.4629 7.40078L13.3423 4.29541" stroke="#6A6A6A" stroke-width="0.7" stroke-miterlimit="10" stroke-linecap="round" stroke-linejoin="round"/>
</svg>
